<svg width="175" height="175" viewBox="0 0 175 175" fill="none" xmlns="http://www.w3.org/2000/svg">
<g clip-path="url(#clip0_1_76)">
<g filter="url(#filter0_i_1_76)">
<path d="M61.1842 144.348C92.9406 144.348 118.684 120.745 118.684 91.6305C118.684 62.5155 92.9406 38.9131 61.1842 38.9131C29.4278 38.9131 3.6842 62.5155 3.6842 91.6305C3.6842 120.745 29.4278 144.348 61.1842 144.348Z" fill="url(#paint0_linear_1_76)"/>
<path d="M107.651 126.118L96.09 135.668C94.0346 137.366 94.0346 140.119 96.09 141.817L129.001 169.005C131.056 170.702 134.389 170.702 136.444 169.005L148.006 159.454C150.061 157.756 150.061 155.003 148.006 153.305L115.095 126.118C113.039 124.42 109.707 124.42 107.651 126.118Z" fill="#141414"/>
<path opacity="0.1" d="M61.0526 146.739C94.7711 146.739 122.105 121.92 122.105 91.3043C122.105 60.6885 94.7711 35.8695 61.0526 35.8695C27.3342 35.8695 0 60.6885 0 91.3043C0 121.92 27.3342 146.739 61.0526 146.739Z" fill="#060606"/>
<path d="M27.3684 26.087C36.8154 26.087 44.4737 20.2472 44.4737 13.0435C44.4737 5.83976 36.8154 0 27.3684 0C17.9215 0 10.2632 5.83976 10.2632 13.0435C10.2632 20.2472 17.9215 26.087 27.3684 26.087Z" fill="#100F0F"/>
<path d="M36.5482 13.7135C36.0658 13.7139 35.5937 13.818 35.1892 14.0133C34.7845 14.2085 34.4645 14.4866 34.2676 14.814H33.1184L31.8695 12.0283C31.8005 11.8753 31.6674 11.7427 31.49 11.65C31.3124 11.5572 31.0995 11.509 30.8824 11.5126C30.6655 11.5161 30.4558 11.5711 30.2837 11.6696C30.1119 11.7681 29.9866 11.9048 29.9266 12.0599L28.2058 16.5378L25.9855 6.84815C25.9461 6.67737 25.829 6.52181 25.6539 6.40748C25.4787 6.29315 25.2561 6.227 25.0232 6.22009C24.7903 6.21315 24.5612 6.26587 24.3744 6.36944C24.1875 6.47298 24.054 6.62109 23.9964 6.789L21.2283 14.814H18.3224V16.3273H22.023C22.2499 16.3273 22.4703 16.2709 22.6492 16.167C22.828 16.0632 22.9551 15.918 23.0102 15.7543L24.7842 10.4806L26.9403 19.891C26.9779 20.0606 27.0921 20.2157 27.2642 20.3305C27.4363 20.4455 27.6558 20.5134 27.8869 20.5231C27.9061 20.5231 27.9248 20.5231 27.944 20.5231C28.1655 20.523 28.3808 20.4692 28.5574 20.3699C28.734 20.2706 28.8621 20.1312 28.9224 19.9728L30.9795 14.8271L31.4195 15.8114C31.4874 15.9618 31.6171 16.0925 31.7903 16.185C31.9634 16.2776 32.1716 16.3274 32.3848 16.3273H34.2676C34.4508 16.6325 34.7413 16.8953 35.1084 17.088C35.4758 17.2807 35.9063 17.3962 36.3545 17.4222C36.8027 17.4482 37.2519 17.3838 37.655 17.2358C38.0579 17.0878 38.3998 16.8617 38.6445 16.5814C38.8892 16.301 39.0274 15.9767 39.045 15.6427C39.0624 15.3088 38.9582 14.9775 38.7437 14.6839C38.529 14.3902 38.2116 14.145 37.8253 13.9743C37.439 13.8035 36.9976 13.7134 36.5482 13.7135Z" fill="#A3D1CC"/>
<path d="M25.7716 25.8887L25.6731 29.5835L29.0933 29.6457L29.1918 25.951L25.7716 25.8887Z" fill="#151414"/>
<path d="M25.5513 34.1477L25.4528 37.8424L28.873 37.9046L28.9715 34.2099L25.5513 34.1477Z" fill="#151414"/>
<path d="M25.3371 42.1892L25.2385 45.8839L28.6587 45.9462L28.7573 42.2514L25.3371 42.1892Z" fill="#151414"/>
<path d="M25.1399 49.5787L25.0414 53.2734L28.4616 53.3357L28.5601 49.6409L25.1399 49.5787Z" fill="#151414"/>
<path d="M24.7169 65.4444L24.6184 69.1392L28.0386 69.2014L28.1372 65.5066L24.7169 65.4444Z" fill="#151414"/>
<path d="M24.9313 57.4029L24.8328 61.0977L28.253 61.1599L28.3515 57.4651L24.9313 57.4029Z" fill="#151414"/>
<path d="M157.895 97.8261C167.342 97.8261 175 91.9863 175 84.7826C175 77.5789 167.342 71.7391 157.895 71.7391C148.448 71.7391 140.789 77.5789 140.789 84.7826C140.789 91.9863 148.448 97.8261 157.895 97.8261Z" fill="#100F0F"/>
<path fill-rule="evenodd" clip-rule="evenodd" d="M158.193 77.0245C158.676 77.0245 159.066 77.2889 159.066 77.6152V79.1904C159.066 79.5165 158.676 79.7811 158.193 79.7811C157.711 79.7811 157.321 79.5165 157.321 79.1904V77.6152C157.321 77.2889 157.711 77.0245 158.193 77.0245ZM150.593 80.3478C150.934 80.1171 151.487 80.1171 151.828 80.3478L152.227 80.618C152.568 80.8489 152.568 81.2228 152.227 81.4535C151.886 81.6841 151.334 81.6841 150.993 81.4535L150.593 81.183C150.252 80.9524 150.252 80.5785 150.593 80.3478ZM165.794 80.3478C166.134 80.5785 166.134 80.9524 165.794 81.183L165.394 81.4535C165.053 81.6841 164.501 81.6841 164.16 81.4535C163.819 81.2228 163.819 80.8489 164.16 80.618L164.559 80.3478C164.9 80.1171 165.453 80.1171 165.794 80.3478ZM145.682 85.4908C145.682 85.1645 146.073 84.9002 146.555 84.9002H148.883C149.365 84.9002 149.756 85.1645 149.756 85.4908C149.756 85.8169 149.365 86.0815 148.883 86.0815H146.555C146.073 86.0815 145.682 85.8169 145.682 85.4908ZM166.631 85.4908C166.631 85.1645 167.022 84.9002 167.504 84.9002H169.832C170.314 84.9002 170.705 85.1645 170.705 85.4908C170.705 85.8169 170.314 86.0815 169.832 86.0815H167.504C167.022 86.0815 166.631 85.8169 166.631 85.4908ZM152.227 89.5282C152.568 89.7589 152.568 90.133 152.227 90.3637L151.828 90.6339C151.487 90.8645 150.934 90.8645 150.593 90.6339C150.252 90.403 150.252 90.0291 150.593 89.7985L150.993 89.5282C151.333 89.2976 151.886 89.2976 152.227 89.5282ZM164.16 89.5282C164.501 89.2976 165.053 89.2976 165.394 89.5282L165.794 89.7985C166.134 90.0291 166.134 90.403 165.794 90.6339C165.453 90.8645 164.9 90.8645 164.559 90.6339L164.16 90.3637C163.819 90.133 163.819 89.7589 164.16 89.5282ZM158.193 91.2006C158.676 91.2006 159.066 91.465 159.066 91.7913V93.3663C159.066 93.6926 158.676 93.9571 158.193 93.9571C157.711 93.9571 157.321 93.6926 157.321 93.3663V91.7913C157.321 91.465 157.711 91.2006 158.193 91.2006Z" fill="#A3D1CC"/>
<path d="M152.27 84.2163C152.27 86.3347 154.583 87.4636 156.277 88.4743C156.875 88.8308 157.451 89.1667 158.026 89.1667C158.602 89.1667 159.178 88.8308 159.775 88.4743C161.469 87.4636 163.783 86.3347 163.783 84.2163C163.783 82.0976 160.617 80.5952 158.026 82.6319C155.436 80.5952 152.27 82.0976 152.27 84.2163Z" fill="#A3D1CC"/>
<path d="M141.053 84.1305H136.579V86.9566H141.053V84.1305Z" fill="#151414"/>
<path d="M131.579 84.1305H127.105V86.9566H131.579V84.1305Z" fill="#151414"/>
<path d="M122.105 84.1305H117.632V86.9566H122.105V84.1305Z" fill="#151414"/>
<path d="M112.105 84.1305H107.632V86.9566H112.105V84.1305Z" fill="#151414"/>
<path d="M102.368 84.1305H97.8948V86.9566H102.368V84.1305Z" fill="#151414"/>
<path d="M93.4211 84.1305H88.9474V86.9566H93.4211V84.1305Z" fill="#151414"/>
<path d="M83.9474 84.1305H79.4737V86.9566H83.9474V84.1305Z" fill="#151414"/>
<path d="M97.3684 56.9565V53.2609H100.789V56.9565H97.3684Z" fill="#151414"/>
<path d="M97.3684 43.9131V40.2174H100.789V43.9131H97.3684Z" fill="#151414"/>
<path d="M97.3684 43.9131V40.2174H100.789V43.9131H97.3684Z" fill="#151414"/>
<path d="M97.3684 50.4348V46.7391H100.789V50.4348H97.3684Z" fill="#151414"/>
<path d="M96.6279 59.8358H101.102V62.6619H96.6279V59.8358Z" fill="#151414"/>
<path d="M85.3124 59.8358H80.8387V62.6619H85.3124V59.8358Z" fill="#151414"/>
<path d="M93.2068 59.8358H88.7332V62.6619H93.2068V59.8358Z" fill="#151414"/>
<path d="M77.9097 62.6359H70.2781V59.8098H77.9097V62.6359Z" fill="#151414"/>
<path d="M98.9474 40.2174C108.394 40.2174 116.053 34.3777 116.053 27.174C116.053 19.9703 108.394 14.1305 98.9474 14.1305C89.5004 14.1305 81.8421 19.9703 81.8421 27.174C81.8421 34.3777 89.5004 40.2174 98.9474 40.2174Z" fill="#100F0F"/>
<mask id="mask0_1_76" style="mask-type:luminance" maskUnits="userSpaceOnUse" x="91" y="23" width="18" height="12">
<path d="M108.947 23.0435H91.0526V35H108.947V23.0435Z" fill="white"/>
</mask>
<g mask="url(#mask0_1_76)">
<path d="M107.834 27.1649L107.835 27.0795C107.835 26.363 106.943 25.7523 105.885 25.7523H92.9979C91.9229 25.7523 91.0526 26.3471 91.0526 27.0658V30.9997C91.0526 31.7182 91.9308 32.291 93.0063 32.291H105.89C106.966 32.291 107.829 31.7154 107.829 30.9967V30.8978C108.388 30.8965 108.947 30.5628 108.947 30.1528V27.9097C108.947 27.4997 108.448 27.166 107.834 27.1649ZM96.645 30.5162C96.645 30.671 96.4573 30.7965 96.2258 30.7965H95.6663C95.4345 30.7965 95.2468 30.671 95.2468 30.5162V27.5271C95.2468 27.3723 95.4345 27.2469 95.6663 27.2469H96.2258C96.4573 27.2469 96.645 27.3723 96.645 27.5271V30.5162Z" fill="#A3D1CC"/>
</g>
<path d="M97.38 16.8859C97.7634 16.6902 98.026 16.6902 98.4095 16.8859C99.62 17.504 98.4095 22.1304 98.4095 22.1304H97.38C97.38 22.1304 96.1695 17.504 97.38 16.8859Z" fill="#F2A3A3"/>
<path d="M97.8842 23.4783C98.2718 23.4783 98.5859 23.2444 98.5859 22.9558C98.5859 22.6673 98.2718 22.4333 97.8842 22.4333C97.4966 22.4333 97.1824 22.6673 97.1824 22.9558C97.1824 23.2444 97.4966 23.4783 97.8842 23.4783Z" fill="#F2A3A3"/>
<path d="M43.9474 123.913V127.609H40.5263V123.913H43.9474Z" fill="#151414"/>
<path d="M44.4737 138.152V141.848H41.0526V138.152H44.4737Z" fill="#151414"/>
<path d="M44.4737 138.152V141.848H41.0526V138.152H44.4737Z" fill="#151414"/>
<path d="M44.2105 145.435V149.13H40.7895V145.435H44.2105Z" fill="#151414"/>
<path d="M44.2105 145.435V149.13H40.7895V145.435H44.2105Z" fill="#151414"/>
<path d="M44.2105 131.304V135H40.7895V131.304H44.2105Z" fill="#151414"/>
<path d="M43.9474 116.957V120.652H40.5263V116.957H43.9474Z" fill="#151414"/>
<path d="M44.0458 106.966V103.27H40.6247V106.966H44.0458Z" fill="#151414"/>
<path d="M43.9474 113.261V109.565H40.5263V113.261H43.9474Z" fill="#151414"/>
<path d="M40.5263 97.826H48.1579V100.652H40.5263V97.826Z" fill="#151414"/>
<path d="M42.8947 175C52.3417 175 60 169.16 60 161.957C60 154.753 52.3417 148.913 42.8947 148.913C33.4477 148.913 25.7894 154.753 25.7894 161.957C25.7894 169.16 33.4477 175 42.8947 175Z" fill="#100F0F"/>
<mask id="mask1_1_76" style="mask-type:luminance" maskUnits="userSpaceOnUse" x="32" y="155" width="23" height="18">
<path d="M55 155H32.6316V172.174H55V155Z" fill="white"/>
</mask>
<g mask="url(#mask1_1_76)">
<path d="M41.579 171.745V168.31C41.579 167.836 41.0771 167.451 40.4605 167.451H37.1053C34.9466 167.451 33.1908 166.103 33.1908 164.446C33.1908 162.789 34.9466 161.44 37.1053 161.44C34.9466 161.44 33.1908 160.092 33.1908 158.435C33.1908 156.778 34.9466 155.429 37.1053 155.429H50.5263C51.6055 155.429 52.4837 156.104 52.4837 156.932C52.4837 157.761 51.6055 158.435 50.5263 158.435C52.6847 158.435 54.4408 159.783 54.4408 161.44C54.4408 163.098 52.6847 164.446 50.5263 164.446H41.579C43.7374 164.446 45.4934 165.794 45.4934 167.451V171.745H41.579Z" fill="#A3D1CC"/>
<path d="M52.309 158.294C52.7621 157.944 53.0426 157.463 53.0426 156.932C53.0426 155.867 51.914 155 50.5263 155H37.1053C34.6384 155 32.6316 156.541 32.6316 158.435C32.6316 159.737 33.5908 160.858 34.9845 161.44C33.5908 162.023 32.6316 163.144 32.6316 164.446C32.6316 166.34 34.6384 167.88 37.1053 167.88H40.4605C40.7692 167.88 41.0197 168.073 41.0197 168.31V171.745C41.0197 171.982 41.2703 172.174 41.579 172.174H45.4934C45.8021 172.174 46.0526 171.982 46.0526 171.745V167.451C46.0526 166.42 45.4461 165.505 44.5066 164.875H50.5263C52.9932 164.875 55 163.334 55 161.44C55 160.033 53.8903 158.824 52.309 158.294ZM50.5263 164.016H37.1053C36.7966 164.016 36.5461 164.208 36.5461 164.446C36.5461 164.683 36.7966 164.875 37.1053 164.875H41.579C43.4321 164.875 44.9342 166.028 44.9342 167.451V171.315H42.1382V168.31C42.1382 167.6 41.3855 167.022 40.4605 167.022H37.1053C35.2521 167.022 33.75 165.868 33.75 164.446C33.75 163.023 35.2521 161.87 37.1053 161.87H50.5263C50.835 161.87 51.0855 161.677 51.0855 161.44C51.0855 161.203 50.835 161.011 50.5263 161.011H37.1053C35.2521 161.011 33.75 159.858 33.75 158.435C33.75 157.012 35.2521 155.859 37.1053 155.859H50.5263C51.2984 155.859 51.9242 156.339 51.9242 156.932C51.9242 157.525 51.2984 158.005 50.5263 158.005H37.1053C36.7966 158.005 36.5461 158.198 36.5461 158.435C36.5461 158.672 36.7966 158.864 37.1053 158.864H50.5263C52.3795 158.864 53.8816 160.017 53.8816 161.44C53.8816 162.863 52.3795 164.016 50.5263 164.016Z" fill="black"/>
</g>
<path d="M62.2368 71.4348C65.2779 71.4348 68.0762 70.6116 70.1432 69.2283C72.2036 67.8494 73.6316 65.8358 73.6316 63.4783C73.6316 61.1207 72.2036 59.1071 70.1432 57.7282C68.0762 56.3449 65.2779 55.5217 62.2368 55.5217C59.1958 55.5217 56.3975 56.3449 54.3305 57.7282C52.2701 59.1071 50.8421 61.1207 50.8421 63.4783C50.8421 65.8358 52.2701 67.8494 54.3305 69.2283C56.3975 70.6116 59.1958 71.4348 62.2368 71.4348Z" fill="#E3E3E3" stroke="black" stroke-width="2"/>
<path d="M43.6339 80.5223L43.634 80.5223C47.1744 80.9292 50.7368 78.6594 50.7368 75.2225V73.4782C50.7368 70.3543 47.7455 68.1304 44.4737 68.1304H12.8047C10.164 68.1304 7.6842 69.9317 7.6842 72.5343C7.6842 74.8827 9.73579 76.6247 12.1224 76.899L43.6339 80.5223Z" fill="#E3E3E3" stroke="black" stroke-width="2"/>
<path d="M78.216 80.3126L78.216 80.3126L109.407 76.1831C109.407 76.1831 109.407 76.1831 109.407 76.1831C111.536 75.9012 113.368 74.3248 113.368 72.1945C113.368 69.7793 111.06 68.1406 108.652 68.1593L77.3533 68.4026L77.3533 68.4026C74.3246 68.4262 71.5357 70.3453 71.1827 73.1826L71.1827 73.1826L71.0237 74.4604L71.0237 74.4605C70.7956 76.2952 71.665 77.9176 73.0215 78.9766C74.3744 80.0326 76.2508 80.5727 78.216 80.3126Z" fill="#E3E3E3" stroke="black" stroke-width="2"/>
<path d="M67.3684 102.696C64.0966 102.696 61.1053 104.92 61.1053 108.044V131.739C61.1053 134.863 64.0966 137.087 67.3684 137.087C70.6403 137.087 73.6316 134.863 73.6316 131.739V108.044C73.6316 104.92 70.6403 102.696 67.3684 102.696Z" fill="#E3E3E3" stroke="black" stroke-width="2"/>
<path d="M55 103.13C51.7281 103.13 48.7368 105.354 48.7368 108.478V132.174C48.7368 135.298 51.7281 137.522 55 137.522C58.2718 137.522 61.2631 135.298 61.2631 132.174V108.478C61.2631 105.354 58.2718 103.13 55 103.13Z" fill="#E3E3E3" stroke="black" stroke-width="2"/>
<path d="M61.0818 109.696C64.6545 109.696 67.7905 107.645 69.993 104.529C72.1973 101.411 73.5292 97.1544 73.5292 92.5V92.464C73.5292 86.8966 73.5292 82.6755 73.3487 79.4984C73.1696 76.345 72.8086 74.0563 71.9887 72.4524C71.5656 71.6249 71.0164 70.9692 70.3102 70.4719C69.6114 69.9798 68.8053 69.6755 67.9122 69.4814C66.1968 69.1086 63.9612 69.1087 61.2008 69.1087L61.0818 69.1087C60.8546 69.1087 60.6308 69.1085 60.4106 69.1083C57.9113 69.106 55.862 69.104 54.2713 69.4162C53.3817 69.5907 52.5739 69.8727 51.8713 70.345C51.1595 70.8235 50.6052 71.4641 50.1787 72.2823C49.3543 73.8634 48.9939 76.1443 48.8149 79.3153C48.6345 82.5126 48.6345 86.7878 48.6345 92.4635V92.5C48.6345 97.1544 49.9664 101.411 52.1707 104.529C54.3733 107.645 57.5093 109.696 61.0818 109.696Z" fill="#E3E3E3" stroke="black" stroke-width="2"/>
<path d="M55 100.652C56.4534 100.652 57.6316 99.6789 57.6316 98.4782C57.6316 97.2776 56.4534 96.3043 55 96.3043C53.5466 96.3043 52.3684 97.2776 52.3684 98.4782C52.3684 99.6789 53.5466 100.652 55 100.652Z" fill="#121212"/>
<path d="M56.0527 98.4782C56.0527 98.9584 55.5813 99.3478 55 99.3478C54.4187 99.3478 53.9474 98.9584 53.9474 98.4782C53.9474 97.998 54.4187 97.6086 55 97.6086C55.5813 97.6086 56.0527 97.998 56.0527 98.4782Z" fill="white"/>
<path d="M18.6842 75C20.1376 75 21.3158 74.0268 21.3158 72.8261C21.3158 71.6255 20.1376 70.6522 18.6842 70.6522C17.2308 70.6522 16.0526 71.6255 16.0526 72.8261C16.0526 74.0268 17.2308 75 18.6842 75Z" fill="#121212"/>
<path d="M19.7369 72.8261C19.7369 73.3063 19.2656 73.6957 18.6842 73.6957C18.1029 73.6957 17.6316 73.3063 17.6316 72.8261C17.6316 72.3459 18.1029 71.9565 18.6842 71.9565C19.2656 71.9565 19.7369 72.3459 19.7369 72.8261Z" fill="white"/>
<path d="M74.2105 84.1305H69.7368V86.9566H74.2105V84.1305Z" fill="#151414"/>
<path d="M65.2631 59.1304C63.8098 59.1304 62.6316 60.1037 62.6316 61.3044C62.6316 62.505 63.8098 63.4783 65.2631 63.4783C66.7165 63.4783 67.8947 62.505 67.8947 61.3044C67.8947 60.1037 66.7165 59.1304 65.2631 59.1304Z" fill="#121212"/>
<path d="M64.2105 61.3044C64.2105 60.8242 64.6818 60.4348 65.2631 60.4348C65.8445 60.4348 66.3158 60.8242 66.3158 61.3044C66.3158 61.7846 65.8445 62.1739 65.2631 62.1739C64.6818 62.1739 64.2105 61.7846 64.2105 61.3044Z" fill="white"/>
<path d="M27.8937 74.6348L23.4211 74.5535L23.4965 71.728L27.969 71.8093L27.8937 74.6348Z" fill="#151414"/>
<path d="M63.1579 86.9565V83.2609H66.579V86.9565H63.1579Z" fill="#151414"/>
<path d="M64.7369 81.5218C66.1902 81.5218 67.3684 80.5485 67.3684 79.3479C67.3684 78.1472 66.1902 77.174 64.7369 77.174C63.2835 77.174 62.1053 78.1472 62.1053 79.3479C62.1053 80.5485 63.2835 81.5218 64.7369 81.5218Z" fill="#121212"/>
<path d="M65.7895 79.3478C65.7895 79.8281 65.3182 80.2174 64.7368 80.2174C64.1555 80.2174 63.6842 79.8281 63.6842 79.3478C63.6842 78.8676 64.1555 78.4783 64.7368 78.4783C65.3182 78.4783 65.7895 78.8676 65.7895 79.3478Z" fill="white"/>
</g>
</g>
<defs>
<filter id="filter0_i_1_76" x="0" y="0" width="179" height="179" filterUnits="userSpaceOnUse" color-interpolation-filters="sRGB">
<feFlood flood-opacity="0" result="BackgroundImageFix"/>
<feBlend mode="normal" in="SourceGraphic" in2="BackgroundImageFix" result="shape"/>
<feColorMatrix in="SourceAlpha" type="matrix" values="0 0 0 0 0 0 0 0 0 0 0 0 0 0 0 0 0 0 127 0" result="hardAlpha"/>
<feOffset dx="4" dy="4"/>
<feGaussianBlur stdDeviation="5"/>
<feComposite in2="hardAlpha" operator="arithmetic" k2="-1" k3="1"/>
<feColorMatrix type="matrix" values="0 0 0 0 0 0 0 0 0 0 0 0 0 0 0 0 0 0 0.25 0"/>
<feBlend mode="normal" in2="shape" result="effect1_innerShadow_1_76"/>
</filter>
<linearGradient id="paint0_linear_1_76" x1="61.1842" y1="38.9131" x2="61.1842" y2="144.348" gradientUnits="userSpaceOnUse">
<stop stop-color="white"/>
<stop offset="1" stop-color="#70B0CC"/>
</linearGradient>
<clipPath id="clip0_1_76">
<rect width="175" height="175" fill="white"/>
</clipPath>
</defs>
</svg>
